<?xml version="1.0" standalone="no"?><!DOCTYPE svg PUBLIC "-//W3C//DTD SVG 1.1//EN" "http://www.w3.org/Graphics/SVG/1.1/DTD/svg11.dtd"><svg t="1726057170855" class="icon" viewBox="0 0 1024 1024" version="1.1" xmlns="http://www.w3.org/2000/svg" p-id="1580" xmlns:xlink="http://www.w3.org/1999/xlink" width="200" height="200"><path d="M356.892444 332.231111c69.347556-73.329778 181.76-73.329778 251.107556 0 69.461333 73.443556 69.461333 192.341333 0.113778 265.671111l-62.72 66.304a111.36 111.36 0 0 1-62.577778-27.591111l80.952889-85.617778c44.771556-47.331556 44.771556-124.416 0-171.776-44.885333-47.473778-117.76-47.473778-162.56-0.085333l-162.645333 172.003556c-44.8 47.36-44.8 124.416 0 171.776 44.885333 47.473778 117.76 47.473778 162.531555 0.113777l7.822222-8.248889c16.668444 15.644444 35.356444 27.477333 55.182223 35.384889l-18.631112 19.740445c-69.347556 73.301333-181.788444 73.301333-251.136 0-69.432889-73.443556-69.432889-192.341333-0.113777-265.671111z m221.639112-78.136889c69.347556-73.301333 181.788444-73.301333 251.136 0 69.432889 73.443556 69.432889 192.341333 0.113777 265.671111l-162.673777 172.003556c-69.347556 73.329778-181.76 73.329778-251.107556 0-69.461333-73.443556-69.461333-192.341333-0.113778-265.671111l66.56-70.371556c23.04 2.56 45.226667 11.548444 63.146667 27.022222l-85.333333 90.225778c-44.828444 47.388444-44.828444 124.444444 0 171.804445 44.856889 47.473778 117.76 47.473778 162.531555 0.113777l162.645333-172.003555c44.8-47.36 44.8-124.444444 0-171.804445-44.885333-47.473778-117.76-47.473778-162.531555-0.085333l-3.413333 3.612445a173.226667 173.226667 0 0 0-55.608889-34.986667z" fill="#9760C7" p-id="1581"></path></svg>